<mxfile host="app.diagrams.net" modified="2021-08-10T07:29:59.579Z" agent="5.0 (Windows NT 10.0; WOW64) AppleWebKit/537.36 (KHTML, like Gecko) Chrome/92.0.4515.131 Safari/537.36" etag="N-zJdzPQqi8MWV7YWyPU" version="14.9.4" type="github">
  <diagram id="7eI7G3Deble5LOyHK8ZZ" name="第 1 页">
    <mxGraphModel dx="1550" dy="779" grid="1" gridSize="10" guides="1" tooltips="1" connect="1" arrows="1" fold="1" page="1" pageScale="1" pageWidth="827" pageHeight="1169" math="0" shadow="0">
      <root>
        <mxCell id="0" />
        <mxCell id="1" parent="0" />
        <mxCell id="9hx9FVEiKIeqhK4y3OWs-1" style="edgeStyle=orthogonalEdgeStyle;rounded=0;orthogonalLoop=1;jettySize=auto;html=1;exitX=1;exitY=0.5;exitDx=0;exitDy=0;entryX=0;entryY=0.5;entryDx=0;entryDy=0;" edge="1" parent="1" source="9hx9FVEiKIeqhK4y3OWs-2" target="9hx9FVEiKIeqhK4y3OWs-4">
          <mxGeometry relative="1" as="geometry" />
        </mxCell>
        <mxCell id="9hx9FVEiKIeqhK4y3OWs-2" value="使用分组发布" style="rounded=1;whiteSpace=wrap;html=1;fillColor=#dae8fc;strokeColor=#6c8ebf;" vertex="1" parent="1">
          <mxGeometry x="40" y="200" width="130" height="40" as="geometry" />
        </mxCell>
        <mxCell id="9hx9FVEiKIeqhK4y3OWs-15" style="edgeStyle=orthogonalEdgeStyle;rounded=0;orthogonalLoop=1;jettySize=auto;html=1;exitX=1;exitY=0.5;exitDx=0;exitDy=0;entryX=0;entryY=0.5;entryDx=0;entryDy=0;" edge="1" parent="1" source="9hx9FVEiKIeqhK4y3OWs-4" target="9hx9FVEiKIeqhK4y3OWs-6">
          <mxGeometry relative="1" as="geometry" />
        </mxCell>
        <mxCell id="9hx9FVEiKIeqhK4y3OWs-4" value="展示 分组配置 模态框" style="rounded=1;whiteSpace=wrap;html=1;fillColor=#d5e8d4;strokeColor=#82b366;" vertex="1" parent="1">
          <mxGeometry x="210" y="200" width="126" height="40" as="geometry" />
        </mxCell>
        <mxCell id="9hx9FVEiKIeqhK4y3OWs-18" value="保存" style="edgeStyle=orthogonalEdgeStyle;rounded=0;orthogonalLoop=1;jettySize=auto;html=1;exitX=1;exitY=0.5;exitDx=0;exitDy=0;entryX=0;entryY=0.5;entryDx=0;entryDy=0;" edge="1" parent="1" source="9hx9FVEiKIeqhK4y3OWs-6" target="9hx9FVEiKIeqhK4y3OWs-17">
          <mxGeometry relative="1" as="geometry" />
        </mxCell>
        <mxCell id="9hx9FVEiKIeqhK4y3OWs-6" value="配置分组发布" style="rounded=1;whiteSpace=wrap;html=1;fillColor=#ffe6cc;strokeColor=#d79b00;" vertex="1" parent="1">
          <mxGeometry x="400" y="200" width="130" height="40" as="geometry" />
        </mxCell>
        <mxCell id="9hx9FVEiKIeqhK4y3OWs-7" style="edgeStyle=orthogonalEdgeStyle;rounded=0;orthogonalLoop=1;jettySize=auto;html=1;exitX=1;exitY=0.5;exitDx=0;exitDy=0;" edge="1" parent="1" source="9hx9FVEiKIeqhK4y3OWs-8" target="9hx9FVEiKIeqhK4y3OWs-4">
          <mxGeometry relative="1" as="geometry">
            <mxPoint x="260" y="340" as="targetPoint" />
          </mxGeometry>
        </mxCell>
        <mxCell id="9hx9FVEiKIeqhK4y3OWs-8" value="编辑分组" style="rounded=1;whiteSpace=wrap;html=1;fillColor=#dae8fc;strokeColor=#6c8ebf;" vertex="1" parent="1">
          <mxGeometry x="40" y="280" width="130" height="40" as="geometry" />
        </mxCell>
        <mxCell id="9hx9FVEiKIeqhK4y3OWs-17" value="后端保存版本计划分组配置" style="rounded=1;whiteSpace=wrap;html=1;fillColor=#d5e8d4;strokeColor=#82b366;" vertex="1" parent="1">
          <mxGeometry x="620" y="200" width="130" height="40" as="geometry" />
        </mxCell>
        <mxCell id="9hx9FVEiKIeqhK4y3OWs-23" style="edgeStyle=orthogonalEdgeStyle;rounded=0;orthogonalLoop=1;jettySize=auto;html=1;exitX=1;exitY=0.5;exitDx=0;exitDy=0;entryX=0;entryY=0.5;entryDx=0;entryDy=0;" edge="1" parent="1" source="9hx9FVEiKIeqhK4y3OWs-20" target="9hx9FVEiKIeqhK4y3OWs-24">
          <mxGeometry relative="1" as="geometry">
            <mxPoint x="300" y="410" as="targetPoint" />
          </mxGeometry>
        </mxCell>
        <mxCell id="9hx9FVEiKIeqhK4y3OWs-25" value="从后端获取该分组的串行发布配置" style="edgeLabel;html=1;align=center;verticalAlign=middle;resizable=0;points=[];fontColor=#FF0000;" vertex="1" connectable="0" parent="9hx9FVEiKIeqhK4y3OWs-23">
          <mxGeometry x="-0.1877" y="3" relative="1" as="geometry">
            <mxPoint x="17" y="-17" as="offset" />
          </mxGeometry>
        </mxCell>
        <mxCell id="9hx9FVEiKIeqhK4y3OWs-20" value="开始串行发布" style="rounded=1;whiteSpace=wrap;html=1;fillColor=#dae8fc;strokeColor=#6c8ebf;" vertex="1" parent="1">
          <mxGeometry x="40" y="390" width="130" height="40" as="geometry" />
        </mxCell>
        <mxCell id="9hx9FVEiKIeqhK4y3OWs-26" value="&lt;font color=&quot;#000000&quot;&gt;确定&lt;/font&gt;" style="edgeStyle=orthogonalEdgeStyle;rounded=0;orthogonalLoop=1;jettySize=auto;html=1;exitX=1;exitY=0.5;exitDx=0;exitDy=0;fontColor=#FF0000;" edge="1" parent="1" source="9hx9FVEiKIeqhK4y3OWs-24">
          <mxGeometry x="0.0278" y="10" relative="1" as="geometry">
            <mxPoint x="630" y="410" as="targetPoint" />
            <mxPoint as="offset" />
          </mxGeometry>
        </mxCell>
        <mxCell id="9hx9FVEiKIeqhK4y3OWs-24" value="展示串行发布配置模态框" style="rounded=1;whiteSpace=wrap;html=1;fillColor=#d5e8d4;strokeColor=#82b366;" vertex="1" parent="1">
          <mxGeometry x="360" y="390" width="126" height="40" as="geometry" />
        </mxCell>
        <mxCell id="9hx9FVEiKIeqhK4y3OWs-27" value="当前分组开始串行发布" style="rounded=1;whiteSpace=wrap;html=1;fillColor=#d5e8d4;strokeColor=#82b366;" vertex="1" parent="1">
          <mxGeometry x="630" y="390" width="130" height="40" as="geometry" />
        </mxCell>
      </root>
    </mxGraphModel>
  </diagram>
</mxfile>
